# xmcd
# 
# Track frame offsets:
#     150
#     59204
#     81750
#     105935
#     126786
#     156309
#     171669
#     198831
#     225700
#     247301
#     270068
#     284869
# 
# Disc length: 4133
# 
# Revision: 2
# Processed by: cddbd v1.5.2PL0 Copyright (c) Steve Scherf et al.
# Submitted via: fre:ac v1.0.31
# 
DISCID=b110230c
DTITLE=Weather Report - Forecast - Tomorrow - Disc 2
DYEAR=2006
DGENRE=Jazz
TTITLE0=Nubian Sundance (Live)
TTITLE1=Blackthorn Rose
TTITLE2=Badia
TTITLE3=Cannon Ball
TTITLE4=Black Market
TTITLE5=Three Clowns
TTITLE6=Havona
TTITLE7=Birdland
TTITLE8=Palladium
TTITLE9=The Pursuit Of The Woman With The Feathered Hat
TTITLE10=The Orphan
TTITLE11=Sightseeing
EXTD=
EXTT0=
EXTT1=
EXTT2=
EXTT3=
EXTT4=
EXTT5=
EXTT6=
EXTT7=
EXTT8=
EXTT9=
EXTT10=
EXTT11=
PLAYORDER=
